<?xml version="1.0" encoding="UTF-8"?>
<svg id="Layer_1" data-name="Layer 1" xmlns="http://www.w3.org/2000/svg" width="16" height="16" viewBox="0 0 16 16">
  <path d="m15.5,1H.5c-.276,0-.5.224-.5.5v1.341c0,.559.236,1.096.648,1.474l5.027,4.608c.206.189.324.458.324.737v4.84c0,.276.224.5.5.5h3c.276,0,.5-.224.5-.5v-4.84c0-.279.118-.548.324-.737l5.027-4.608c.412-.378.648-.915.648-1.474v-1.341c0-.276-.224-.5-.5-.5Zm-.5,1.841c0,.279-.118.548-.324.737l-5.027,4.608c-.412.378-.648.915-.648,1.474v4.34h-2v-4.34c0-.559-.236-1.096-.648-1.474L1.324,3.578c-.206-.189-.324-.458-.324-.737v-.841h14v.841Z" fill="#fff"/>
</svg>