<?xml version="1.0" encoding="UTF-8"?>
<svg id="Layer_1" data-name="Layer 1" xmlns="http://www.w3.org/2000/svg" width="16" height="16" viewBox="0 0 16 16">
  <path d="m15,3h-7.879c-.265,0-.519-.106-.707-.293l-1.121-1.121c-.376-.374-.884-.585-1.414-.586H1c-.552,0-1,.448-1,1v12c0,.552.448,1,1,1h14c.552,0,1-.448,1-1V4c0-.552-.448-1-1-1Zm0,11H1v-7h3.146c.308,0,.617-.073.895-.211l1.366-.684c.14-.069.294-.105.448-.105h8.146v8Zm0-9H6.854c-.308,0-.617.073-.895.211l-1.366.684c-.14.069-.294.105-.448.105H1V2h2.879c.265,0,.519.106.707.293l1.121,1.121c.376.374.884.585,1.414.586h7.879v1Z" fill="#fff"/>
</svg>