<?xml version="1.0" encoding="UTF-8"?>
<svg id="Layer_1" data-name="Layer 1" xmlns="http://www.w3.org/2000/svg" width="16" height="16" viewBox="0 0 16 16">
  <path d="m15,3h-7.879c-.265,0-.519-.106-.707-.293l-1.121-1.121c-.376-.374-.884-.585-1.414-.586H1c-.552,0-1,.448-1,1v12c0,.552.448,1,1,1h6.5c.276,0,.5-.224.5-.5s-.224-.5-.5-.5H1v-7h3.146c.311,0,.618-.073.896-.212l1.365-.683c.139-.069.292-.105.446-.105h8.147v2.5c0,.276.224.5.5.5s.5-.224.5-.5v-4.5c0-.552-.448-1-1-1Zm0,2H6.854c-.308,0-.617.073-.895.211l-1.366.684c-.14.069-.294.105-.448.105H1V2h2.879c.265,0,.519.106.707.293l1.121,1.121c.376.374.884.585,1.414.586h7.879v1Zm.5,5.5v.5c0,.152-.069.296-.188.391l-2.125,1.7c-.119.095-.188.237-.188.39v2.02c0,.276-.224.5-.5.5h-1c-.272,0-.495-.219-.5-.491l-.035-2.035c-.002-.148-.069-.286-.185-.38l-2.096-1.706c-.117-.095-.185-.237-.185-.388v-.5c0-.276.224-.5.5-.5h6c.276,0,.5.224.5.5Z" fill="#fff"/>
</svg>