<?xml version="1.0" encoding="UTF-8"?>
<svg id="Layer_1" data-name="Layer 1" xmlns="http://www.w3.org/2000/svg" width="16" height="16" viewBox="0 0 16 16">
  <path d="m1.017,3.933c-.079.046-.165.067-.25.067-.172,0-.341-.09-.433-.25-.138-.24-.056-.545.183-.683l.983-.567-.983-.567c-.24-.138-.322-.444-.183-.683.138-.239.445-.322.683-.183l.982.567V.5c0-.276.224-.5.5-.5s.5.224.5.5v1.134l.982-.567c.239-.139.545-.056.683.183.138.24.056.545-.183.683l-.983.567.983.567c.24.138.322.444.183.683-.092.16-.261.25-.433.25-.085,0-.171-.021-.25-.067l-.982-.567v1.134c0,.276-.224.5-.5.5s-.5-.224-.5-.5v-1.134l-.982.567Zm6.982,4.907c2.347,0,4.709-.416,6-1.22v1.38h1.001V2.609c0-2.229-5.745-3.027-9.874-2.4.236.27.439.568.584.901.68-.088,1.434-.148,2.29-.148,3.882,0,6,1.088,6,1.647s-2.118,1.648-6,1.648c-.901,0-1.696-.063-2.402-.16-.174.337-.391.647-.661.909.961.165,2.011.253,3.063.253,2.347,0,4.709-.416,6-1.22v2.15c0,.559-2.118,1.648-6,1.648s-6-1.089-6-1.648v-.24c-.354-.051-.689-.151-1-.299v7.701c0,1.656,3.192,2.558,6.5,2.641v-1.011c-3.552-.091-5.501-1.096-5.501-1.63v-2.15c1.199.747,3.324,1.153,5.501,1.208v-1.008c-3.552-.091-5.501-1.096-5.501-1.63v-2.151c1.291.804,3.653,1.22,6,1.22Zm7.001,1.16h-6c-.276,0-.5.224-.5.5v.5c0,.15.067.293.185.388l2.096,1.706c.115.094.183.231.185.38l.035,2.035c.005.272.228.491.5.491h1c.276,0,.5-.224.5-.5v-2.02c0-.152.068-.295.188-.39l2.125-1.7c.118-.095.188-.238.188-.391v-.5c0-.276-.224-.5-.5-.5Z"/>
</svg>