<?xml version="1.0" encoding="UTF-8"?>
<svg id="Layer_1" data-name="Layer 1" xmlns="http://www.w3.org/2000/svg" width="16" height="16" viewBox="0 0 16 16">
  <path d="m10,7.5v2c0,.276-.224.5-.5.5h-4c-.276,0-.5-.224-.5-.5v-.52h-2v3.02h2v-.5c0-.276.224-.5.5-.5h4c.276,0,.5.224.5.5v2c0,.276-.224.5-.5.5h-4c-.276,0-.5-.224-.5-.5v-.5h-2.5c-.276,0-.5-.224-.5-.5V4H.5c-.276,0-.5-.224-.5-.5V1.5c0-.276.224-.5.5-.5h4c.276,0,.5.224.5.5v2c0,.276-.224.5-.5.5h-1.5v3.98h2v-.48c0-.276.224-.5.5-.5h4c.276,0,.5.224.5.5Zm5.5.5h-4c-.276,0-.5.224-.5.5v.75c0,.276.224.5.5.5s.5-.224.5-.5v-.25h1v3h-.25c-.276,0-.5.224-.5.5s.224.5.5.5h1.5c.276,0,.5-.224.5-.5s-.224-.5-.5-.5h-.25v-3h1v.25c0,.276.224.5.5.5s.5-.224.5-.5v-.75c0-.276-.224-.5-.5-.5Zm-2.5-4.2l-1.5,3.2,4.5-4.4h-2.25l1.25-1.6h-2l-2,2.8h2Zm-1.701-2.305c-.004-.274-.227-.493-.5-.493h-.007c-2.253.032-4.498.605-4.744,1.79-.029.064-.048.133-.048.208v2.5c0,.276.224.5.5.5s.5-.224.5-.5v-1.246c.744.38,1.719.563,2.28.637.022.003.044.004.066.004.247,0,.462-.183.495-.435.036-.273-.157-.525-.431-.562-1.809-.238-2.411-.776-2.411-.899,0-.22,1.187-.961,3.806-.998.276-.004.497-.231.493-.507Zm4.201,3.191c-.276,0-.5.224-.5.5v1.313c0,.276.224.5.5.5s.5-.224.5-.5v-1.313c0-.276-.224-.5-.5-.5Z"/>
</svg>