<?xml version="1.0" encoding="UTF-8"?>
<svg id="Layer_1" data-name="Layer 1" xmlns="http://www.w3.org/2000/svg" width="16" height="16" viewBox="0 0 16 16">
  <path d="m11,3.8l2-2.8h2l-1.25,1.6h2.25l-4.5,4.4,1.5-3.2h-2Zm-4.5,2.2c.276,0,.5-.224.5-.5v-1.246c.744.38,1.719.563,2.28.637.022.003.044.004.066.004.247,0,.462-.183.495-.435.036-.273-.157-.525-.431-.562-1.809-.238-2.411-.776-2.411-.899,0-.22,1.187-.961,3.806-.998.276-.004.497-.231.493-.507-.004-.274-.227-.493-.5-.493h-.007c-2.253.032-4.498.605-4.744,1.79-.029.064-.048.133-.048.208v2.5c0,.276.224.5.5.5Zm9-1.313c-.276,0-.5.224-.5.5v7.813c0,.216-1.179.948-3.783.992-.275.005-.496.232-.491.509.005.272.228.491.5.491h.009c2.372-.04,4.766-.672,4.766-1.992v-7.813c0-.276-.224-.5-.5-.5Zm-6,2.313h-4c-.276,0-.5.224-.5.5v.48h-2v-3.98h1.5c.276,0,.5-.224.5-.5V1.5c0-.276-.224-.5-.5-.5H.5C.224,1,0,1.224,0,1.5v2C0,3.776.224,4,.5,4h1.5v8.5c0,.276.224.5.5.5h2.5v.5c0,.276.224.5.5.5h4c.276,0,.5-.224.5-.5v-2c0-.276-.224-.5-.5-.5h-4c-.276,0-.5.224-.5.5v.5h-2v-3.02h2v.52c0,.276.224.5.5.5h4c.276,0,.5-.224.5-.5v-2c0-.276-.224-.5-.5-.5Z"/>
</svg>