<?xml version="1.0" encoding="UTF-8"?>
<svg id="Layer_1" data-name="Layer 1" xmlns="http://www.w3.org/2000/svg" width="16" height="16" viewBox="0 0 16 16">
  <path d="m10,7.5v2c0,.276-.224.5-.5.5h-4c-.276,0-.5-.224-.5-.5v-.52h-2v3.02h2v-.5c0-.276.224-.5.5-.5h4c.276,0,.5.224.5.5v2c0,.276-.224.5-.5.5h-4c-.276,0-.5-.224-.5-.5v-.5h-2.5c-.276,0-.5-.224-.5-.5V4H.5c-.276,0-.5-.224-.5-.5V1.5c0-.276.224-.5.5-.5h4c.276,0,.5.224.5.5v2c0,.276-.224.5-.5.5h-1.5v3.98h2v-.48c0-.276.224-.5.5-.5h4c.276,0,.5.224.5.5Zm6-4.5v10c0,1.34-2.414,1.906-4.481,1.983h-.019c-.268,0-.489-.212-.5-.481-.01-.275.205-.508.481-.519,2.46-.092,3.519-.778,3.519-.983V4.262c-.975.501-2.521.738-4,.738s-3.025-.237-4-.738v1.238c0,.276-.224.5-.5.5s-.5-.224-.5-.5v-2.5c0-1.374,2.592-2,5-2s5,.626,5,2Zm-1,0c0-.257-1.375-1-4-1s-4,.743-4,1,1.375,1,4,1,4-.743,4-1Z"/>
</svg>