<?xml version="1.0" encoding="UTF-8"?>
<svg id="Layer_1" data-name="Layer 1" xmlns="http://www.w3.org/2000/svg" width="16" height="16" viewBox="0 0 16 16">
  <path d="m8,8.84c2.347,0,4.709-.416,6-1.22v1.38h1V2.609C15-.87,1-.87,1,2.609v10.741c0,1.656,3.192,2.558,6.5,2.641v-1.012c-3.551-.091-5.5-1.096-5.5-1.629v-2.15c1.2.746,3.323,1.153,5.5,1.208v-1.009c-3.551-.091-5.5-1.096-5.5-1.629v-2.151c1.291.804,3.653,1.22,6,1.22Zm0-7.877c3.882,0,6,1.088,6,1.646s-2.118,1.648-6,1.648-6-1.089-6-1.648,2.118-1.646,6-1.646Zm-6,3.077c1.291.804,3.653,1.22,6,1.22s4.709-.416,6-1.22v2.15c0,.559-2.118,1.648-6,1.648s-6-1.089-6-1.648v-2.15Zm13.5,6.46v.5c0,.152-.069.296-.188.391l-2.125,1.7c-.119.095-.188.237-.188.39v2.02c0,.276-.224.5-.5.5h-1c-.272,0-.495-.219-.5-.491l-.035-2.035c-.002-.148-.069-.286-.185-.38l-2.096-1.706c-.117-.095-.185-.237-.185-.388v-.5c0-.276.224-.5.5-.5h6c.276,0,.5.224.5.5Z"/>
</svg>