<?xml version="1.0" encoding="UTF-8"?>
<svg id="a" data-name="Layer 1" xmlns="http://www.w3.org/2000/svg" viewBox="0 0 16 16">
  <path d="m4.6,3h-.199c-.213,0-.401.134-.472.335l-1.4,4c-.092.261.046.546.307.637.262.094.545-.046.637-.307l.233-.665h1.591l.233.665c.072.206.265.335.472.335.055,0,.11-.009.165-.028.261-.091.398-.376.307-.637l-1.4-4c-.07-.201-.259-.335-.472-.335Zm-.545,3l.445-1.271.445,1.271h-.891Zm3.945,4.5c0,.276-.224.5-.5.5H1c-.552,0-1-.448-1-1V1C0,.448.448,0,1,0h9c.552,0,1,.448,1,1v6.5c0,.276-.224.5-.5.5s-.5-.224-.5-.5V1H1v9h6.5c.276,0,.5.224.5.5Zm8-1v4c0,.276-.224.5-.5.5h-2l-2.5,2v-2h-1.5c-.276,0-.5-.224-.5-.5v-4c0-.276.224-.5.5-.5h6c.276,0,.5.224.5.5ZM8,3.5v4c0,.276-.224.5-.5.5s-.5-.224-.5-.5V3.5c0-.276.224-.5.5-.5s.5.224.5.5Z" stroke-width="0"/>
</svg>